<svg width="169" height="22" viewBox="0 0 169 22" fill="none" xmlns="http://www.w3.org/2000/svg">
<path d="M0.0880001 17V0.199999H3.304L10.456 12.056H8.752L15.784 0.199999H19L19.024 17H15.376L15.352 5.792H16.048L10.408 15.224H8.68L2.92 5.792H3.736V17H0.0880001ZM22.9094 17V4.088H26.6294V11.768L32.9174 4.088H36.3494V17H32.6294V9.32L26.3654 17H22.9094ZM47.5564 17.192C46.4684 17.192 45.5164 16.952 44.7004 16.472C43.8844 15.992 43.2444 15.264 42.7804 14.288C42.3324 13.296 42.1084 12.048 42.1084 10.544C42.1084 9.024 42.3244 7.776 42.7564 6.8C43.1884 5.824 43.8124 5.096 44.6284 4.616C45.4444 4.136 46.4204 3.896 47.5564 3.896C48.7724 3.896 49.8604 4.176 50.8204 4.736C51.7964 5.28 52.5644 6.048 53.1244 7.04C53.7004 8.032 53.9884 9.2 53.9884 10.544C53.9884 11.904 53.7004 13.08 53.1244 14.072C52.5644 15.064 51.7964 15.832 50.8204 16.376C49.8604 16.92 48.7724 17.192 47.5564 17.192ZM39.9244 21.656V4.088H43.5004V6.728L43.4284 10.568L43.6684 14.384V21.656H39.9244ZM46.9084 14.12C47.5324 14.12 48.0844 13.976 48.5644 13.688C49.0604 13.4 49.4524 12.992 49.7404 12.464C50.0444 11.92 50.1964 11.28 50.1964 10.544C50.1964 9.792 50.0444 9.152 49.7404 8.624C49.4524 8.096 49.0604 7.688 48.5644 7.4C48.0844 7.112 47.5324 6.968 46.9084 6.968C46.2844 6.968 45.7244 7.112 45.2284 7.4C44.7324 7.688 44.3404 8.096 44.0524 8.624C43.7644 9.152 43.6204 9.792 43.6204 10.544C43.6204 11.28 43.7644 11.92 44.0524 12.464C44.3404 12.992 44.7324 13.4 45.2284 13.688C45.7244 13.976 46.2844 14.12 46.9084 14.12ZM72.5534 17L68.2334 10.88L71.2814 9.08L76.9694 17H72.5534ZM63.4094 17V4.088H67.1534V17H63.4094ZM66.0494 12.104V9.104H70.5614V12.104H66.0494ZM71.6414 10.976L68.1374 10.592L72.6734 4.088H76.6574L71.6414 10.976ZM86.4158 17.192C85.3278 17.192 84.3758 16.952 83.5598 16.472C82.7438 15.992 82.1038 15.264 81.6398 14.288C81.1918 13.296 80.9678 12.048 80.9678 10.544C80.9678 9.024 81.1838 7.776 81.6158 6.8C82.0478 5.824 82.6718 5.096 83.4878 4.616C84.3038 4.136 85.2798 3.896 86.4158 3.896C87.6318 3.896 88.7198 4.176 89.6798 4.736C90.6558 5.28 91.4238 6.048 91.9838 7.04C92.5598 8.032 92.8478 9.2 92.8478 10.544C92.8478 11.904 92.5598 13.08 91.9838 14.072C91.4238 15.064 90.6558 15.832 89.6798 16.376C88.7198 16.92 87.6318 17.192 86.4158 17.192ZM78.7838 21.656V4.088H82.3598V6.728L82.2878 10.568L82.5278 14.384V21.656H78.7838ZM85.7678 14.12C86.3918 14.12 86.9438 13.976 87.4238 13.688C87.9198 13.4 88.3118 12.992 88.5998 12.464C88.9038 11.92 89.0558 11.28 89.0558 10.544C89.0558 9.792 88.9038 9.152 88.5998 8.624C88.3118 8.096 87.9198 7.688 87.4238 7.4C86.9438 7.112 86.3918 6.968 85.7678 6.968C85.1438 6.968 84.5838 7.112 84.0878 7.4C83.5918 7.688 83.1998 8.096 82.9118 8.624C82.6238 9.152 82.4798 9.792 82.4798 10.544C82.4798 11.28 82.6238 11.92 82.9118 12.464C83.1998 12.992 83.5918 13.4 84.0878 13.688C84.5838 13.976 85.1438 14.12 85.7678 14.12ZM102.989 17V14.48L102.749 13.928V9.416C102.749 8.616 102.501 7.992 102.005 7.544C101.525 7.096 100.781 6.872 99.7729 6.872C99.0849 6.872 98.4049 6.984 97.7329 7.208C97.0769 7.416 96.5169 7.704 96.0529 8.072L94.7089 5.456C95.4129 4.96 96.2609 4.576 97.2529 4.304C98.2449 4.032 99.2529 3.896 100.277 3.896C102.245 3.896 103.773 4.36 104.861 5.288C105.949 6.216 106.493 7.664 106.493 9.632V17H102.989ZM99.0529 17.192C98.0449 17.192 97.1809 17.024 96.4609 16.688C95.7409 16.336 95.1889 15.864 94.8049 15.272C94.4209 14.68 94.2289 14.016 94.2289 13.28C94.2289 12.512 94.4129 11.84 94.7809 11.264C95.1649 10.688 95.7649 10.24 96.5809 9.92C97.3969 9.584 98.4609 9.416 99.7729 9.416H103.205V11.6H100.181C99.3009 11.6 98.6929 11.744 98.3569 12.032C98.0369 12.32 97.8769 12.68 97.8769 13.112C97.8769 13.592 98.0609 13.976 98.4289 14.264C98.8129 14.536 99.3329 14.672 99.9889 14.672C100.613 14.672 101.173 14.528 101.669 14.24C102.165 13.936 102.525 13.496 102.749 12.92L103.325 14.648C103.053 15.48 102.557 16.112 101.837 16.544C101.117 16.976 100.189 17.192 99.0529 17.192ZM115.889 17.192C114.497 17.192 113.257 16.912 112.169 16.352C111.081 15.776 110.225 14.984 109.601 13.976C108.993 12.968 108.689 11.824 108.689 10.544C108.689 9.248 108.993 8.104 109.601 7.112C110.225 6.104 111.081 5.32 112.169 4.76C113.257 4.184 114.497 3.896 115.889 3.896C117.249 3.896 118.433 4.184 119.441 4.76C120.449 5.32 121.193 6.128 121.673 7.184L118.769 8.744C118.433 8.136 118.009 7.688 117.497 7.4C117.001 7.112 116.457 6.968 115.865 6.968C115.225 6.968 114.649 7.112 114.137 7.4C113.625 7.688 113.217 8.096 112.913 8.624C112.625 9.152 112.481 9.792 112.481 10.544C112.481 11.296 112.625 11.936 112.913 12.464C113.217 12.992 113.625 13.4 114.137 13.688C114.649 13.976 115.225 14.12 115.865 14.12C116.457 14.12 117.001 13.984 117.497 13.712C118.009 13.424 118.433 12.968 118.769 12.344L121.673 13.928C121.193 14.968 120.449 15.776 119.441 16.352C118.433 16.912 117.249 17.192 115.889 17.192ZM129.832 17.192C128.456 17.192 127.232 16.904 126.16 16.328C125.104 15.752 124.264 14.968 123.64 13.976C123.032 12.968 122.728 11.824 122.728 10.544C122.728 9.248 123.032 8.104 123.64 7.112C124.264 6.104 125.104 5.32 126.16 4.76C127.232 4.184 128.456 3.896 129.832 3.896C131.192 3.896 132.408 4.184 133.48 4.76C134.552 5.32 135.392 6.096 136 7.088C136.608 8.08 136.912 9.232 136.912 10.544C136.912 11.824 136.608 12.968 136 13.976C135.392 14.968 134.552 15.752 133.48 16.328C132.408 16.904 131.192 17.192 129.832 17.192ZM129.832 14.12C130.456 14.12 131.016 13.976 131.512 13.688C132.008 13.4 132.4 12.992 132.688 12.464C132.976 11.92 133.12 11.28 133.12 10.544C133.12 9.792 132.976 9.152 132.688 8.624C132.4 8.096 132.008 7.688 131.512 7.4C131.016 7.112 130.456 6.968 129.832 6.968C129.208 6.968 128.648 7.112 128.152 7.4C127.656 7.688 127.256 8.096 126.952 8.624C126.664 9.152 126.52 9.792 126.52 10.544C126.52 11.28 126.664 11.92 126.952 12.464C127.256 12.992 127.656 13.4 128.152 13.688C128.648 13.976 129.208 14.12 129.832 14.12ZM141.779 17V6.296L142.619 7.16H137.411V4.088H149.867V7.16H144.659L145.499 6.296V17H141.779ZM165.159 17V4.088H168.879V17H165.159ZM158.655 8.216C160.351 8.232 161.623 8.616 162.471 9.368C163.335 10.104 163.767 11.152 163.767 12.512C163.767 13.936 163.279 15.048 162.303 15.848C161.327 16.632 159.943 17.024 158.151 17.024L151.863 17V4.088H155.583V8.216H158.655ZM157.815 14.36C158.535 14.376 159.087 14.224 159.471 13.904C159.855 13.584 160.047 13.104 160.047 12.464C160.047 11.824 159.855 11.368 159.471 11.096C159.087 10.808 158.535 10.656 157.815 10.64L155.583 10.616V14.36H157.815Z" fill="#333333"/>
</svg>
